<mxfile host="app.diagrams.net" modified="2021-12-27T14:37:30.258Z" agent="5.0 (Windows NT 10.0; Win64; x64) AppleWebKit/537.36 (KHTML, like Gecko) Chrome/96.0.4664.110 Safari/537.36" etag="JXkDatwqOorUf2vRbmqo" version="16.1.0" type="github">
  <diagram id="BzMXNOrpS3UiSfX97aiC" name="Page-1">
    <mxGraphModel dx="1182" dy="809" grid="1" gridSize="10" guides="1" tooltips="1" connect="1" arrows="1" fold="1" page="1" pageScale="1" pageWidth="850" pageHeight="1100" math="0" shadow="0">
      <root>
        <mxCell id="0" />
        <mxCell id="1" parent="0" />
      </root>
    </mxGraphModel>
  </diagram>
</mxfile>
